<?xml version="1.0" standalone="no"?>
<!DOCTYPE svg PUBLIC "-//W3C//DTD SVG 20010904//EN"
 "http://www.w3.org/TR/2001/REC-SVG-20010904/DTD/svg10.dtd">
<svg version="1.0" xmlns="http://www.w3.org/2000/svg"
 width="200.000000pt" height="200.000000pt" viewBox="0 0 200.000000 200.000000"
 preserveAspectRatio="xMidYMid meet">
<metadata>
Created by potrace 1.11, written by Peter Selinger 2001-2013
</metadata>
<g transform="translate(0.000000,200.000000) scale(0.100000,-0.100000)"
fill="#000000" stroke="none">
<path d="M82 1001 l3 -536 220 1 c168 1 234 5 281 18 257 68 410 258 419 519
8 265 -128 456 -370 517 -33 9 -136 14 -303 15 l-252 2 2 -536z m511 309 c67
-26 113 -70 145 -139 21 -46 25 -70 26 -146 0 -100 -12 -148 -55 -216 -59 -94
-149 -136 -295 -138 l-101 -2 1 328 0 328 30 5 c63 10 197 -1 249 -20z"/>
<path d="M1139 1493 c0 -24 -1 -59 -1 -78 0 -19 1 -46 1 -60 l1 -25 246 0 245
0 -43 -59 c-59 -82 -310 -424 -320 -436 -5 -5 -38 -50 -75 -99 l-66 -90 -3
-80 c-1 -45 1 -86 5 -91 4 -7 139 -11 399 -10 l392 0 0 101 0 102 -246 0
c-135 0 -247 2 -250 5 -2 2 108 156 246 342 l250 337 0 92 0 91 -390 0 -390 0
-1 -42z"/>
</g>
</svg>
